<?xml version="1.0" encoding="iso-8859-1"?>
<!-- Generator: Adobe Illustrator 19.0.0, SVG Export Plug-In . SVG Version: 6.00 Build 0)  -->
<svg version="1.1" id="Layer_1" xmlns="http://www.w3.org/2000/svg" xmlns:xlink="http://www.w3.org/1999/xlink" x="0px" y="0px"
	 viewBox="0 0 512 512" style="enable-background:new 0 0 512 512;" xml:space="preserve">
<g>
	<g>
		<path d="M403.342,273.348c-1.963-3.859-6.681-5.392-10.539-3.431c-3.857,1.963-5.393,6.681-3.43,10.539
			c11.781,23.158,7.439,51.066-10.806,69.446c-11.146,11.228-25.989,17.412-41.795,17.413c-15.807,0-30.651-6.184-41.798-17.413
			c-23.092-23.262-23.092-61.11,0-84.37c20.311-20.457,52.118-23.287,75.636-6.725c3.539,2.492,8.427,1.644,10.919-1.894
			c2.492-3.538,1.644-8.428-1.895-10.919c-29.785-20.977-70.07-17.404-95.783,8.497c-29.137,29.349-29.137,77.105,0,106.454
			c14.111,14.216,32.905,22.044,52.921,22.044c20.014,0,38.809-7.829,52.92-22.044C412.713,337.75,418.198,302.549,403.342,273.348z
			"/>
	</g>
</g>
<g>
	<g>
		<path d="M390.293,305.623c-0.164-4.325-3.801-7.679-8.13-7.532c-4.326,0.166-7.697,3.807-7.531,8.131
			c0.41,10.688-3.643,21.137-11.119,28.667c-3.049,3.071-3.03,8.033,0.041,11.082c1.529,1.518,3.524,2.276,5.521,2.276
			c2.015,0,4.03-0.772,5.561-2.315C385.163,335.329,390.869,320.637,390.293,305.623z"/>
	</g>
</g>
<g>
	<g>
		<path d="M508.211,447.001l-43.215-43.533c-1.996-2.01-4.536-3.274-7.289-3.684l-12.146-12.234
			c-2.461-2.48-5.744-3.845-9.242-3.845c-3.498,0-6.78,1.366-9.242,3.845l-0.006,0.006l-9.875-9.948
			c36.025-41.963,34.267-105.668-5.28-145.507c-0.247-0.25-0.5-0.491-0.75-0.738c-0.136-13.719-1.613-27.41-4.429-40.724
			c-0.897-4.235-5.058-6.943-9.29-6.045c-4.234,0.895-6.941,5.054-6.045,9.289c1.686,7.969,2.847,16.087,3.497,24.265
			c-12.374-8.176-26.265-13.614-40.929-16.003c-1.959-17.745-5.606-34.914-10.785-51.177c9.406-3.425,18.609-7.215,27.577-11.353
			c3.869,6.811,7.353,13.866,10.379,21.168c1.656,3.999,6.238,5.897,10.239,4.241c3.999-1.656,5.898-6.241,4.241-10.239
			c-15.377-37.122-41.121-68.737-74.447-91.428c-34.144-23.249-74.109-35.537-115.575-35.537C92.23,27.819,0,120.048,0,233.414
			S92.23,439.01,205.596,439.01c37.697,0,73.047-10.21,103.455-27.993c8.928,2.413,18.227,3.663,27.72,3.663
			c25.751,0,50.101-9.161,69.38-25.951l9.875,9.95l-0.086,0.086c-5.052,5.09-5.052,13.368,0,18.458l12.166,12.255
			c0.39,2.682,1.591,5.266,3.636,7.326l43.217,43.532c2.461,2.478,5.743,3.844,9.241,3.844c3.499,0,6.781-1.366,9.244-3.846
			l14.764-14.875C513.263,460.369,513.263,452.089,508.211,447.001z M312.35,76.312c19.82,13.495,36.716,30.418,50.042,49.898
			c-7.964,3.617-16.117,6.949-24.44,9.984c-6.7-17.112-15.199-33.008-25.404-47.192c-6.953-9.665-14.485-18.26-22.489-25.739
			C297.737,67.081,305.184,71.432,312.35,76.312z M338.023,200.765c-0.418-0.004-0.835-0.016-1.253-0.016
			c-19.622,0-38.43,5.322-54.804,15.282c-0.488-16.414-1.68-32.417-3.509-47.76c17.044-3.03,33.72-7.128,49.873-12.252
			C332.8,170.115,336.095,185.113,338.023,200.765z M323.071,141.25c-15.136,4.776-30.755,8.615-46.721,11.479
			c-3.467-22.701-8.406-43.622-14.705-61.727c-5.812-16.705-12.587-30.326-20.072-40.592
			C276.519,64.142,305.762,97.38,323.071,141.25z M213.433,45.383c11.948,5.647,24.004,23.738,33.407,50.768
			c6.007,17.267,10.736,37.261,14.056,59.029c-15.585,2.158-31.448,3.4-47.463,3.707V45.383z M213.433,174.564
			c16.714-0.309,33.276-1.6,49.553-3.852c2.059,17.5,3.253,35.932,3.511,54.863h-53.064V174.564z M213.433,241.251h40.094
			c-12.094,15.334-19.386,33.266-21.916,51.739c-6.035-0.373-12.097-0.616-18.178-0.729V241.251z M197.759,45.364v113.524
			c-16.007-0.306-31.863-1.547-47.441-3.704C159.538,95.065,178.669,54.326,197.759,45.364z M144.694,225.577
			c0.263-19.458,1.503-37.823,3.519-54.862c16.275,2.252,32.835,3.542,49.546,3.85v51.012H144.694z M197.759,241.252v51.012
			c-16.714,0.308-33.277,1.6-49.554,3.853c-2.06-17.501-3.254-35.934-3.511-54.864H197.759z M169.619,50.41
			c-7.486,10.266-14.261,23.887-20.072,40.592c-6.3,18.109-11.255,39.016-14.723,61.723c-15.964-2.865-31.583-6.704-46.717-11.481
			C105.415,97.373,134.67,64.142,169.619,50.41z M110.76,241.251h18.259c0.263,19.749,1.522,39.006,3.701,57.308
			c-17.04,3.029-33.713,7.128-49.861,12.251c-6.786-21.397-10.849-44.877-11.562-69.559h6.028c4.328,0,7.837-3.509,7.837-7.837
			c0-4.328-3.509-7.837-7.837-7.837h-6.028c0.713-24.683,4.777-48.161,11.562-69.559c16.15,5.123,32.821,9.221,49.861,12.251
			c-2.179,18.302-3.438,37.559-3.701,57.307H110.76c-4.328,0-7.837,3.509-7.837,7.837
			C102.924,237.743,106.432,241.251,110.76,241.251z M120.95,63.433c-7.935,7.44-15.408,15.974-22.309,25.567
			c-10.205,14.186-18.717,30.072-25.417,47.187c-8.28-3.02-16.392-6.332-24.315-9.928C67.14,99.684,91.929,77.945,120.95,63.433z
			 M40.497,139.643c8.941,4.124,18.113,7.9,27.49,11.315c-7.432,23.332-11.663,48.553-12.371,74.618H15.848
			C17.119,194.427,25.931,165.191,40.497,139.643z M15.848,241.251h39.769c0.707,26.064,4.938,51.287,12.371,74.619
			c-9.377,3.415-18.549,7.192-27.49,11.316C25.931,301.637,17.119,272.4,15.848,241.251z M48.91,340.569
			c7.922-3.597,16.035-6.908,24.315-9.928c6.7,17.112,15.214,33,25.417,47.185c6.901,9.593,14.373,18.129,22.31,25.569
			C91.929,388.884,67.14,367.144,48.91,340.569z M88.106,325.585c15.135-4.777,30.754-8.616,46.718-11.481
			c3.468,22.708,8.423,43.614,14.723,61.723c5.812,16.705,12.588,30.328,20.072,40.594
			C134.67,402.688,105.415,369.456,88.106,325.585z M213.433,421.467v-33.811c0-4.328-3.509-7.837-7.837-7.837
			c-4.329,0-7.838,3.509-7.838,7.837v33.789c-11.949-5.647-24.005-23.739-33.41-50.771c-6.007-17.267-10.736-37.26-14.055-59.028
			c15.586-2.158,31.449-3.4,47.464-3.707v47.326c0,4.328,3.509,7.837,7.838,7.837c4.328,0,7.837-3.509,7.837-7.837v-47.33
			c5.746,0.11,11.473,0.341,17.175,0.692c0.168,20.276,5.994,40.513,17.51,58.056C238.386,396.196,225.902,415.614,213.433,421.467z
			 M241.569,416.423c6.65-9.12,12.737-20.901,18.088-35.128c0.646,0.685,1.301,1.365,1.969,2.037
			c4.414,4.445,9.147,8.451,14.149,11.996C265.239,404.477,253.749,411.635,241.569,416.423z M400.794,372.289
			c-17.104,17.229-39.841,26.718-64.022,26.718c-24.182,0-46.919-9.49-64.023-26.718c-35.344-35.605-35.345-93.541-0.003-129.148
			c17.105-17.229,39.843-26.717,64.025-26.717c24.182,0,46.919,9.489,64.023,26.718
			C436.138,278.748,436.138,336.684,400.794,372.289z M435.442,414.62l-6.577-6.625l7.453-7.508l6.577,6.624L435.442,414.62z
			 M484.203,467.398l-39.536-39.823l11.086-11.168l39.535,39.823L484.203,467.398z"/>
	</g>
</g>
<g>
	<g>
		<path d="M478.317,250.783c-3.065-3.057-8.027-3.052-11.082,0.011l-11.461,11.486c-3.057,3.064-3.052,8.026,0.011,11.083
			c1.529,1.527,3.532,2.289,5.535,2.289c2.008,0,4.017-0.767,5.547-2.301l11.461-11.486
			C481.385,258.803,481.38,253.841,478.317,250.783z"/>
	</g>
</g>
<g>
	<g>
		<path d="M483.824,291.561h-14.228c-4.328,0-7.837,3.509-7.837,7.837c0,4.328,3.508,7.837,7.837,7.837h14.228
			c4.329,0,7.837-3.509,7.837-7.837C491.661,295.069,488.153,291.561,483.824,291.561z"/>
	</g>
</g>
<g>
	<g>
		<path d="M478.328,336.928l-11.461-11.486c-3.057-3.064-8.02-3.068-11.082-0.011c-3.064,3.057-3.069,8.02-0.011,11.083L467.233,348
			c1.531,1.534,3.539,2.301,5.547,2.301c2.003,0,4.006-0.763,5.536-2.289C481.38,344.954,481.386,339.992,478.328,336.928z"/>
	</g>
</g>
<g>
</g>
<g>
</g>
<g>
</g>
<g>
</g>
<g>
</g>
<g>
</g>
<g>
</g>
<g>
</g>
<g>
</g>
<g>
</g>
<g>
</g>
<g>
</g>
<g>
</g>
<g>
</g>
<g>
</g>
</svg>
