<?xml version="1.0" encoding="iso-8859-1"?>
<!-- Generator: Adobe Illustrator 19.0.0, SVG Export Plug-In . SVG Version: 6.00 Build 0)  -->
<svg version="1.1" id="Capa_1" xmlns="http://www.w3.org/2000/svg" xmlns:xlink="http://www.w3.org/1999/xlink" x="0px" y="0px"
	 viewBox="0 0 512 512" style="enable-background:new 0 0 512 512;" xml:space="preserve">
<g>
	<g>
		<path d="M501.333,96H160c-5.888,0-10.667,4.779-10.667,10.667s4.779,10.667,10.667,10.667h341.333
			c5.888,0,10.667-4.779,10.667-10.667S507.221,96,501.333,96z"/>
	</g>
</g>
<g>
	<g>
		<path d="M501.333,245.333H160c-5.888,0-10.667,4.779-10.667,10.667s4.779,10.667,10.667,10.667h341.333
			c5.888,0,10.667-4.779,10.667-10.667S507.221,245.333,501.333,245.333z"/>
	</g>
</g>
<g>
	<g>
		<path d="M501.333,394.667H160c-5.888,0-10.667,4.779-10.667,10.667c0,5.888,4.779,10.667,10.667,10.667h341.333
			c5.888,0,10.667-4.779,10.667-10.667C512,399.445,507.221,394.667,501.333,394.667z"/>
	</g>
</g>
<g>
	<g>
		<path d="M53.333,352C23.936,352,0,375.915,0,405.333c0,29.419,23.936,53.333,53.333,53.333s53.333-23.915,53.333-53.333
			C106.667,375.915,82.731,352,53.333,352z M53.333,437.333c-17.643,0-32-14.357-32-32c0-17.643,14.357-32,32-32
			c17.643,0,32,14.357,32,32C85.333,422.976,70.976,437.333,53.333,437.333z"/>
	</g>
</g>
<g>
	<g>
		<path d="M53.333,202.667C23.936,202.667,0,226.581,0,256c0,29.419,23.936,53.333,53.333,53.333s53.333-23.915,53.333-53.333
			C106.667,226.581,82.731,202.667,53.333,202.667z M53.333,288c-17.643,0-32-14.357-32-32c0-17.643,14.357-32,32-32
			c17.643,0,32,14.357,32,32C85.333,273.643,70.976,288,53.333,288z"/>
	</g>
</g>
<g>
	<g>
		<path d="M53.333,53.333C23.936,53.333,0,77.248,0,106.667C0,136.085,23.936,160,53.333,160s53.333-23.915,53.333-53.333
			C106.667,77.248,82.731,53.333,53.333,53.333z M53.333,138.667c-17.643,0-32-14.357-32-32c0-17.643,14.357-32,32-32
			c17.643,0,32,14.357,32,32C85.333,124.309,70.976,138.667,53.333,138.667z"/>
	</g>
</g>
<g>
</g>
<g>
</g>
<g>
</g>
<g>
</g>
<g>
</g>
<g>
</g>
<g>
</g>
<g>
</g>
<g>
</g>
<g>
</g>
<g>
</g>
<g>
</g>
<g>
</g>
<g>
</g>
<g>
</g>
</svg>
